<svg xmlns="http://www.w3.org/2000/svg" xmlns:xlink="http://www.w3.org/1999/xlink" xmlns:lucid="lucid" width="1000" height="380"><g transform="translate(-300 -180)" lucid:page-tab-id="0_0"><path d="M320 240h140v60H320z" stroke="#000" stroke-width="2" fill="#fff"/><use xlink:href="#a" transform="matrix(1,0,0,1,325,245) translate(49 28.6)"/><path d="M320 360h140v60H320z" stroke="#000" stroke-width="2" fill="#fff"/><use xlink:href="#b" transform="matrix(1,0,0,1,325,365) translate(24.049999999999997 28.6)"/><path d="M320 480h140v60H320z" stroke="#000" stroke-width="2" fill="#fff"/><use xlink:href="#c" transform="matrix(1,0,0,1,325,485) translate(51.025 28.6)"/><path d="M576 240c13.25 0 24 13.43 24 30s-10.75 30-24 30h-72c-13.25 0-24-13.43-24-30s10.75-30 24-30z" stroke="#000" stroke-width="2" fill="#a3d977"/><use xlink:href="#d" transform="matrix(1,0,0,1,485,245) translate(34 28.6)"/><path d="M576 360c13.25 0 24 13.43 24 30s-10.75 30-24 30h-72c-13.25 0-24-13.43-24-30s10.75-30 24-30z" stroke="#000" stroke-width="2" fill="#a3d977"/><use xlink:href="#e" transform="matrix(1,0,0,1,485,365) translate(9.049999999999997 28.6)"/><path d="M390 479v-39.76M390 479v3" stroke="#000" stroke-width="2" fill="none"/><path d="M390 424.24l4.64 14.26h-9.28z" stroke="#000" stroke-width="2"/><path d="M390 359v-39.76M390 359v3" stroke="#000" stroke-width="2" fill="none"/><path d="M390 304.24l4.64 14.26h-9.28z" stroke="#000" stroke-width="2"/><path d="M640 360h140v60H640z" stroke="#000" stroke-width="2" fill="#fff"/><use xlink:href="#f" transform="matrix(1,0,0,1,645,365) translate(37.575 28.6)"/><path d="M640 480h140v60H640z" stroke="#000" stroke-width="2" fill="#fff"/><use xlink:href="#g" transform="matrix(1,0,0,1,645,485) translate(48.525 28.6)"/><path d="M896 360c13.25 0 24 13.43 24 30s-10.75 30-24 30h-72c-13.25 0-24-13.43-24-30s10.75-30 24-30z" stroke="#000" stroke-width="2" fill="#a3d977"/><use xlink:href="#h" transform="matrix(1,0,0,1,805,365) translate(22.575000000000003 28.6)"/><path d="M710 479v-39.76M710 479v3" stroke="#000" stroke-width="2" fill="none"/><path d="M710 424.24l4.64 14.26h-9.28z" stroke="#000" stroke-width="2"/><path d="M980 360h140v60H980z" stroke="#000" stroke-width="2" fill="#fff"/><use xlink:href="#i" transform="matrix(1,0,0,1,985,365) translate(19.625 28.6)"/><use xlink:href="#j" transform="matrix(1,0,0,1,985,365) translate(65.475 28.6)"/><path d="M940 480h140v60H940z" stroke="#000" stroke-width="2" fill="#fff"/><use xlink:href="#k" transform="matrix(1,0,0,1,945,485) translate(31.525 28.6)"/><path d="M1196 480c13.25 0 24 13.43 24 30s-10.75 30-24 30h-72c-13.25 0-24-13.43-24-30s10.75-30 24-30z" stroke="#000" stroke-width="2" fill="#a3d977"/><use xlink:href="#l" transform="matrix(1,0,0,1,1105,485) translate(16.525 28.6)"/><path d="M896 480c13.25 0 24 13.43 24 30s-10.75 30-24 30h-72c-13.25 0-24-13.43-24-30s10.75-30 24-30z" stroke="#000" stroke-width="2" fill="#a3d977"/><use xlink:href="#m" transform="matrix(1,0,0,1,805,485) translate(33.525 28.6)"/><path d="M576 480c13.25 0 24 13.43 24 30s-10.75 30-24 30h-72c-13.25 0-24-13.43-24-30s10.75-30 24-30z" stroke="#000" stroke-width="2" fill="#a3d977"/><use xlink:href="#n" transform="matrix(1,0,0,1,485,485) translate(36.025 28.6)"/><path d="M960 200h320v240H960z" stroke="#000" stroke-width="2" fill="none"/><use xlink:href="#o" transform="matrix(1,0,0,1,968,208) translate(132 15.6)"/><path d="M980 260h140v60H980z" stroke="#000" stroke-width="2" fill="#fff"/><use xlink:href="#p" transform="matrix(1,0,0,1,985,265) translate(13.574999999999996 28.6)"/><use xlink:href="#j" transform="matrix(1,0,0,1,985,265) translate(71.525 28.6)"/><path d="M1236 360c13.25 0 24 13.43 24 30s-10.75 30-24 30h-72c-13.25 0-24-13.43-24-30s10.75-30 24-30z" stroke="#000" stroke-width="2" fill="#fff"/><use xlink:href="#q" transform="matrix(1,0,0,1,1145,365) translate(9.074999999999996 17.799999999999997)"/><use xlink:href="#r" transform="matrix(1,0,0,1,1145,365) translate(29.025 39.4)"/><path d="M1150 252.6h100v74.8h-100z" stroke="#000" stroke-opacity="0" stroke-width="2" fill="#a3d977"/><use xlink:href="#s" transform="matrix(1,0,0,1,1155,257.6) translate(6.524999999999999 14.500000000000002)"/><use xlink:href="#t" transform="matrix(1,0,0,1,1155,257.6) translate(31.549999999999997 36.1)"/><use xlink:href="#u" transform="matrix(1,0,0,1,1155,257.6) translate(12.599999999999994 57.7)"/><path d="M1050 359v-19.76M1050 359v3" stroke="#000" stroke-width="2" fill="none"/><path d="M1050 324.24l4.64 14.26h-9.28z" stroke="#000" stroke-width="2"/><defs><path d="M185-189c-5-48-123-54-124 2 14 75 158 14 163 119 3 78-121 87-175 55-17-10-28-26-33-46l33-7c5 56 141 63 141-1 0-78-155-14-162-118-5-82 145-84 179-34 5 7 8 16 11 25" id="v"/><path d="M100-194c63 0 86 42 84 106H49c0 40 14 67 53 68 26 1 43-12 49-29l28 8c-11 28-37 45-77 45C44 4 14-33 15-96c1-61 26-98 85-98zm52 81c6-60-76-77-97-28-3 7-6 17-6 28h103" id="w"/><path d="M145-31C134-9 116 4 85 4 32 4 16-35 15-94c0-59 17-99 70-100 32-1 48 14 60 33 0-11-1-24 2-32h30l-1 268h-32zM93-21c41 0 51-33 51-76s-8-73-50-73c-40 0-46 35-46 75s5 74 45 74" id="x"/><g id="a"><use transform="matrix(0.05,0,0,0.05,0,0)" xlink:href="#v"/><use transform="matrix(0.05,0,0,0.05,12,0)" xlink:href="#w"/><use transform="matrix(0.05,0,0,0.05,22,0)" xlink:href="#x"/></g><path d="M30 0v-248h33v221h125V0H30" id="y"/><path d="M24-231v-30h32v30H24zM24 0v-190h32V0H24" id="z"/><path d="M117-194c89-4 53 116 60 194h-32v-121c0-31-8-49-39-48C34-167 62-67 57 0H25l-1-190h30c1 10-1 24 2 32 11-22 29-35 61-36" id="A"/><path d="M141-36C126-15 110 5 73 4 37 3 15-17 15-53c-1-64 63-63 125-63 3-35-9-54-41-54-24 1-41 7-42 31l-33-3c5-37 33-52 76-52 45 0 72 20 72 64v82c-1 20 7 32 28 27v20c-31 9-61-2-59-35zM48-53c0 20 12 33 32 33 41-3 63-29 60-74-43 2-92-5-92 41" id="B"/><path d="M114-163C36-179 61-72 57 0H25l-1-190h30c1 12-1 29 2 39 6-27 23-49 58-41v29" id="C"/><g id="b"><use transform="matrix(0.05,0,0,0.05,0,0)" xlink:href="#y"/><use transform="matrix(0.05,0,0,0.05,10,0)" xlink:href="#z"/><use transform="matrix(0.05,0,0,0.05,13.949999999999998,0)" xlink:href="#A"/><use transform="matrix(0.05,0,0,0.05,23.95,0)" xlink:href="#w"/><use transform="matrix(0.05,0,0,0.05,33.95,0)" xlink:href="#B"/><use transform="matrix(0.05,0,0,0.05,43.95,0)" xlink:href="#C"/><use transform="matrix(0.05,0,0,0.05,49.900000000000006,0)" xlink:href="#v"/><use transform="matrix(0.05,0,0,0.05,61.900000000000006,0)" xlink:href="#w"/><use transform="matrix(0.05,0,0,0.05,71.9,0)" xlink:href="#x"/></g><path d="M135-143c-3-34-86-38-87 0 15 53 115 12 119 90S17 21 10-45l28-5c4 36 97 45 98 0-10-56-113-15-118-90-4-57 82-63 122-42 12 7 21 19 24 35" id="D"/><path d="M59-47c-2 24 18 29 38 22v24C64 9 27 4 27-40v-127H5v-23h24l9-43h21v43h35v23H59v120" id="E"/><g id="c"><use transform="matrix(0.05,0,0,0.05,0,0)" xlink:href="#y"/><use transform="matrix(0.05,0,0,0.05,10,0)" xlink:href="#z"/><use transform="matrix(0.05,0,0,0.05,13.949999999999998,0)" xlink:href="#D"/><use transform="matrix(0.05,0,0,0.05,22.95,0)" xlink:href="#E"/></g><path d="M194-70c0 46-34 64-81 66v29H91V-4C42-5 12-27 4-67l30-6c5 28 25 41 57 43v-87c-38-9-76-20-76-67 1-42 33-58 76-59v-23h22v23c45 0 67 20 76 56l-31 6c-5-23-18-35-45-37v78c41 10 81 20 81 70zm-81 41c51 7 71-66 19-77-6-2-12-4-19-6v83zM91-219c-47-6-63 57-18 69 6 2 12 3 18 5v-74" id="F"/><g id="d"><use transform="matrix(0.05,0,0,0.05,0,0)" xlink:href="#v"/><use transform="matrix(0.05,0,0,0.05,12,0)" xlink:href="#w"/><use transform="matrix(0.05,0,0,0.05,22,0)" xlink:href="#x"/><use transform="matrix(0.05,0,0,0.05,32,0)" xlink:href="#F"/></g><g id="e"><use transform="matrix(0.05,0,0,0.05,0,0)" xlink:href="#y"/><use transform="matrix(0.05,0,0,0.05,10,0)" xlink:href="#z"/><use transform="matrix(0.05,0,0,0.05,13.949999999999998,0)" xlink:href="#A"/><use transform="matrix(0.05,0,0,0.05,23.95,0)" xlink:href="#w"/><use transform="matrix(0.05,0,0,0.05,33.95,0)" xlink:href="#B"/><use transform="matrix(0.05,0,0,0.05,43.95,0)" xlink:href="#C"/><use transform="matrix(0.05,0,0,0.05,49.900000000000006,0)" xlink:href="#v"/><use transform="matrix(0.05,0,0,0.05,61.900000000000006,0)" xlink:href="#w"/><use transform="matrix(0.05,0,0,0.05,71.9,0)" xlink:href="#x"/><use transform="matrix(0.05,0,0,0.05,81.9,0)" xlink:href="#F"/></g><path d="M205 0l-28-72H64L36 0H1l101-248h38L239 0h-34zm-38-99l-47-123c-12 45-31 82-46 123h93" id="G"/><path d="M210-169c-67 3-38 105-44 169h-31v-121c0-29-5-50-35-48C34-165 62-65 56 0H25l-1-190h30c1 10-1 24 2 32 10-44 99-50 107 0 11-21 27-35 58-36 85-2 47 119 55 194h-31v-121c0-29-5-49-35-48" id="H"/><path d="M24 0v-261h32V0H24" id="I"/><g id="f"><use transform="matrix(0.05,0,0,0.05,0,0)" xlink:href="#G"/><use transform="matrix(0.05,0,0,0.05,12,0)" xlink:href="#A"/><use transform="matrix(0.05,0,0,0.05,22,0)" xlink:href="#z"/><use transform="matrix(0.05,0,0,0.05,25.950000000000003,0)" xlink:href="#H"/><use transform="matrix(0.05,0,0,0.05,40.9,0)" xlink:href="#B"/><use transform="matrix(0.05,0,0,0.05,50.9,0)" xlink:href="#I"/></g><path d="M30-248c118-7 216 8 213 122C240-48 200 0 122 0H30v-248zM63-27c89 8 146-16 146-99s-60-101-146-95v194" id="J"/><path d="M100-194c62-1 85 37 85 99 1 63-27 99-86 99S16-35 15-95c0-66 28-99 85-99zM99-20c44 1 53-31 53-75 0-43-8-75-51-75s-53 32-53 75 10 74 51 75" id="K"/><path d="M177-190C167-65 218 103 67 71c-23-6-38-20-44-43l32-5c15 47 100 32 89-28v-30C133-14 115 1 83 1 29 1 15-40 15-95c0-56 16-97 71-98 29-1 48 16 59 35 1-10 0-23 2-32h30zM94-22c36 0 50-32 50-73 0-42-14-75-50-75-39 0-46 34-46 75s6 73 46 73" id="L"/><g id="g"><use transform="matrix(0.05,0,0,0.05,0,0)" xlink:href="#J"/><use transform="matrix(0.05,0,0,0.05,12.950000000000001,0)" xlink:href="#K"/><use transform="matrix(0.05,0,0,0.05,22.950000000000003,0)" xlink:href="#L"/></g><g id="h"><use transform="matrix(0.05,0,0,0.05,0,0)" xlink:href="#G"/><use transform="matrix(0.05,0,0,0.05,12,0)" xlink:href="#A"/><use transform="matrix(0.05,0,0,0.05,22,0)" xlink:href="#z"/><use transform="matrix(0.05,0,0,0.05,25.950000000000003,0)" xlink:href="#H"/><use transform="matrix(0.05,0,0,0.05,40.9,0)" xlink:href="#B"/><use transform="matrix(0.05,0,0,0.05,50.9,0)" xlink:href="#I"/><use transform="matrix(0.05,0,0,0.05,54.85,0)" xlink:href="#F"/></g><path d="M212-179c-10-28-35-45-73-45-59 0-87 40-87 99 0 60 29 101 89 101 43 0 62-24 78-52l27 14C228-24 195 4 139 4 59 4 22-46 18-125c-6-104 99-153 187-111 19 9 31 26 39 46" id="M"/><path d="M106-169C34-169 62-67 57 0H25v-261h32l-1 103c12-21 28-36 61-36 89 0 53 116 60 194h-32v-121c2-32-8-49-39-48" id="N"/><path d="M85-194c31 0 48 13 60 33l-1-100h32l1 261h-30c-2-10 0-23-3-31C134-8 116 4 85 4 32 4 16-35 15-94c0-66 23-100 70-100zm9 24c-40 0-46 34-46 75 0 40 6 74 45 74 42 0 51-32 51-76 0-42-9-74-50-73" id="O"/><g id="i"><use transform="matrix(0.05,0,0,0.05,0,0)" xlink:href="#M"/><use transform="matrix(0.05,0,0,0.05,12.950000000000001,0)" xlink:href="#N"/><use transform="matrix(0.05,0,0,0.05,22.950000000000003,0)" xlink:href="#z"/><use transform="matrix(0.05,0,0,0.05,26.900000000000002,0)" xlink:href="#I"/><use transform="matrix(0.05,0,0,0.05,30.85,0)" xlink:href="#O"/></g><g id="j"><use transform="matrix(0.05,0,0,0.05,0,0)" xlink:href="#M"/><use transform="matrix(0.05,0,0,0.05,12.950000000000001,0)" xlink:href="#I"/><use transform="matrix(0.05,0,0,0.05,16.900000000000002,0)" xlink:href="#B"/><use transform="matrix(0.05,0,0,0.05,26.900000000000002,0)" xlink:href="#D"/><use transform="matrix(0.05,0,0,0.05,35.900000000000006,0)" xlink:href="#D"/></g><path d="M30 0v-248h187v28H63v79h144v27H63v87h162V0H30" id="P"/><path d="M96-169c-40 0-48 33-48 73s9 75 48 75c24 0 41-14 43-38l32 2c-6 37-31 61-74 61-59 0-76-41-82-99-10-93 101-131 147-64 4 7 5 14 7 22l-32 3c-4-21-16-35-41-35" id="Q"/><g id="k"><use transform="matrix(0.05,0,0,0.05,0,0)" xlink:href="#P"/><use transform="matrix(0.05,0,0,0.05,12,0)" xlink:href="#A"/><use transform="matrix(0.05,0,0,0.05,22,0)" xlink:href="#Q"/><use transform="matrix(0.05,0,0,0.05,31,0)" xlink:href="#K"/><use transform="matrix(0.05,0,0,0.05,41,0)" xlink:href="#O"/><use transform="matrix(0.05,0,0,0.05,51,0)" xlink:href="#w"/><use transform="matrix(0.05,0,0,0.05,61,0)" xlink:href="#C"/></g><g id="l"><use transform="matrix(0.05,0,0,0.05,0,0)" xlink:href="#P"/><use transform="matrix(0.05,0,0,0.05,12,0)" xlink:href="#A"/><use transform="matrix(0.05,0,0,0.05,22,0)" xlink:href="#Q"/><use transform="matrix(0.05,0,0,0.05,31,0)" xlink:href="#K"/><use transform="matrix(0.05,0,0,0.05,41,0)" xlink:href="#O"/><use transform="matrix(0.05,0,0,0.05,51,0)" xlink:href="#w"/><use transform="matrix(0.05,0,0,0.05,61,0)" xlink:href="#C"/><use transform="matrix(0.05,0,0,0.05,66.95,0)" xlink:href="#F"/></g><g id="m"><use transform="matrix(0.05,0,0,0.05,0,0)" xlink:href="#J"/><use transform="matrix(0.05,0,0,0.05,12.950000000000001,0)" xlink:href="#K"/><use transform="matrix(0.05,0,0,0.05,22.950000000000003,0)" xlink:href="#L"/><use transform="matrix(0.05,0,0,0.05,32.95,0)" xlink:href="#F"/></g><g id="n"><use transform="matrix(0.05,0,0,0.05,0,0)" xlink:href="#y"/><use transform="matrix(0.05,0,0,0.05,10,0)" xlink:href="#z"/><use transform="matrix(0.05,0,0,0.05,13.949999999999998,0)" xlink:href="#D"/><use transform="matrix(0.05,0,0,0.05,22.95,0)" xlink:href="#E"/><use transform="matrix(0.05,0,0,0.05,27.950000000000003,0)" xlink:href="#F"/></g><path d="M194 0L95-120 63-95V0H30v-248h33v124l119-124h40L117-140 236 0h-42" id="R"/><path d="M179-190L93 31C79 59 56 82 12 73V49c39 6 53-20 64-50L1-190h34L92-34l54-156h33" id="S"/><g id="o"><use transform="matrix(0.05,0,0,0.05,0,0)" xlink:href="#R"/><use transform="matrix(0.05,0,0,0.05,12,0)" xlink:href="#w"/><use transform="matrix(0.05,0,0,0.05,22,0)" xlink:href="#S"/><use transform="matrix(0.05,0,0,0.05,31,0)" xlink:href="#D"/></g><path d="M30-248c87 1 191-15 191 75 0 78-77 80-158 76V0H30v-248zm33 125c57 0 124 11 124-50 0-59-68-47-124-48v98" id="T"/><g id="p"><use transform="matrix(0.05,0,0,0.05,0,0)" xlink:href="#T"/><use transform="matrix(0.05,0,0,0.05,12,0)" xlink:href="#B"/><use transform="matrix(0.05,0,0,0.05,22,0)" xlink:href="#C"/><use transform="matrix(0.05,0,0,0.05,27.950000000000003,0)" xlink:href="#w"/><use transform="matrix(0.05,0,0,0.05,37.95,0)" xlink:href="#A"/><use transform="matrix(0.05,0,0,0.05,47.95,0)" xlink:href="#E"/></g><path d="M115-194c55 1 70 41 70 98S169 2 115 4C84 4 66-9 55-30l1 105H24l-1-265h31l2 30c10-21 28-34 59-34zm-8 174c40 0 45-34 45-75s-6-73-45-74c-42 0-51 32-51 76 0 43 10 73 51 73" id="U"/><g id="q"><use transform="matrix(0.05,0,0,0.05,0,0)" xlink:href="#M"/><use transform="matrix(0.05,0,0,0.05,12.950000000000001,0)" xlink:href="#K"/><use transform="matrix(0.05,0,0,0.05,22.950000000000003,0)" xlink:href="#H"/><use transform="matrix(0.05,0,0,0.05,37.900000000000006,0)" xlink:href="#U"/><use transform="matrix(0.05,0,0,0.05,47.900000000000006,0)" xlink:href="#B"/><use transform="matrix(0.05,0,0,0.05,57.900000000000006,0)" xlink:href="#A"/><use transform="matrix(0.05,0,0,0.05,67.9,0)" xlink:href="#z"/><use transform="matrix(0.05,0,0,0.05,71.85000000000001,0)" xlink:href="#K"/><use transform="matrix(0.05,0,0,0.05,81.85000000000001,0)" xlink:href="#A"/></g><path d="M140-251c81 0 123 46 123 126C263-46 219 4 140 4 59 4 17-45 17-125s42-126 123-126zm0 227c63 0 89-41 89-101s-29-99-89-99c-61 0-89 39-89 99S79-25 140-24" id="V"/><path d="M115-194c53 0 69 39 70 98 0 66-23 100-70 100C84 3 66-7 56-30L54 0H23l1-261h32v101c10-23 28-34 59-34zm-8 174c40 0 45-34 45-75 0-40-5-75-45-74-42 0-51 32-51 76 0 43 10 73 51 73" id="W"/><path d="M24-231v-30h32v30H24zM-9 49c24 4 33-6 33-30v-209h32V24c2 40-23 58-65 49V49" id="X"/><g id="r"><use transform="matrix(0.05,0,0,0.05,0,0)" xlink:href="#V"/><use transform="matrix(0.05,0,0,0.05,14,0)" xlink:href="#W"/><use transform="matrix(0.05,0,0,0.05,24,0)" xlink:href="#X"/><use transform="matrix(0.05,0,0,0.05,27.950000000000003,0)" xlink:href="#w"/><use transform="matrix(0.05,0,0,0.05,37.95,0)" xlink:href="#Q"/><use transform="matrix(0.05,0,0,0.05,46.95,0)" xlink:href="#E"/></g><g id="s"><use transform="matrix(0.05,0,0,0.05,0,0)" xlink:href="#v"/><use transform="matrix(0.05,0,0,0.05,12,0)" xlink:href="#w"/><use transform="matrix(0.05,0,0,0.05,22,0)" xlink:href="#B"/><use transform="matrix(0.05,0,0,0.05,32,0)" xlink:href="#C"/><use transform="matrix(0.05,0,0,0.05,37.95,0)" xlink:href="#Q"/><use transform="matrix(0.05,0,0,0.05,46.95,0)" xlink:href="#N"/><use transform="matrix(0.05,0,0,0.05,56.95,0)" xlink:href="#w"/><use transform="matrix(0.05,0,0,0.05,66.95,0)" xlink:href="#O"/></g><path d="M63-220v92h138v28H63V0H30v-248h175v28H63" id="Y"/><g id="t"><use transform="matrix(0.05,0,0,0.05,0,0)" xlink:href="#Y"/><use transform="matrix(0.05,0,0,0.05,10.950000000000001,0)" xlink:href="#K"/><use transform="matrix(0.05,0,0,0.05,20.950000000000003,0)" xlink:href="#C"/></g><path d="M33 0v-248h34V0H33" id="Z"/><g id="u"><use transform="matrix(0.05,0,0,0.05,0,0)" xlink:href="#Z"/><use transform="matrix(0.05,0,0,0.05,5,0)" xlink:href="#H"/><use transform="matrix(0.05,0,0,0.05,19.950000000000003,0)" xlink:href="#U"/><use transform="matrix(0.05,0,0,0.05,29.950000000000003,0)" xlink:href="#I"/><use transform="matrix(0.05,0,0,0.05,33.900000000000006,0)" xlink:href="#z"/><use transform="matrix(0.05,0,0,0.05,37.85000000000001,0)" xlink:href="#Q"/><use transform="matrix(0.05,0,0,0.05,46.85000000000001,0)" xlink:href="#z"/><use transform="matrix(0.05,0,0,0.05,50.80000000000001,0)" xlink:href="#E"/><use transform="matrix(0.05,0,0,0.05,55.80000000000001,0)" xlink:href="#D"/></g></defs></g></svg>