<svg version="1.1" xmlns="http://www.w3.org/2000/svg" viewBox="0 0 762.2857142857143 496.1785714285716" width="1524.5714285714287" height="992.3571428571432">
  <!-- svg-source:excalidraw -->
  
  <defs>
    <style class="style-fonts">
      @font-face {
        font-family: "Virgil";
        src: url("https://excalidraw.com/Virgil.woff2");
      }
      @font-face {
        font-family: "Cascadia";
        src: url("https://excalidraw.com/Cascadia.woff2");
      }
      @font-face {
        font-family: "Assistant";
        src: url("https://excalidraw.com/Assistant-Regular.woff2");
      }
    </style>
    
  </defs>
  <rect x="0" y="0" width="762.2857142857143" height="496.1785714285716" fill="#ffffff"></rect><g stroke-linecap="round" transform="translate(10 286.4325396825398) rotate(0 75.28571428571439 53.99999999999994)"><path d="M27 0 C50.22 2.37, 72.1 1.63, 123.57 0 M27 0 C49.24 0.61, 69.85 -1.12, 123.57 0 M123.57 0 C143.07 -1.59, 149.59 7.22, 150.57 27 M123.57 0 C143.01 -0.27, 151.58 7.72, 150.57 27 M150.57 27 C150.24 44.71, 152.32 58.39, 150.57 81 M150.57 27 C150.58 42.14, 149.42 58.49, 150.57 81 M150.57 81 C151.87 97.48, 142.54 106.99, 123.57 108 M150.57 81 C151.57 98.44, 139.56 107.69, 123.57 108 M123.57 108 C88.37 108.24, 51.64 109.17, 27 108 M123.57 108 C99.69 107.1, 76.96 108.32, 27 108 M27 108 C10.51 109.5, -0.07 98.24, 0 81 M27 108 C8.08 107.6, 1.98 97.46, 0 81 M0 81 C-2.07 62.53, -2.12 44.56, 0 27 M0 81 C-0.86 60.66, -0.45 40.09, 0 27 M0 27 C-1.53 10.45, 10.36 -0.99, 27 0 M0 27 C-1.12 10.2, 10.8 -2.06, 27 0" stroke="#1e1e1e" stroke-width="2" fill="none"></path></g><g transform="translate(42.0023814610073 315.43253968253975) rotate(0 43.28333282470703 25)"><text x="43.28333282470703" y="0" font-family="Virgil, Segoe UI Emoji" font-size="20px" fill="#1e1e1e" text-anchor="middle" style="white-space: pre;" direction="ltr" dominant-baseline="text-before-edge">Shopping </text><text x="43.28333282470703" y="25" font-family="Virgil, Segoe UI Emoji" font-size="20px" fill="#1e1e1e" text-anchor="middle" style="white-space: pre;" direction="ltr" dominant-baseline="text-before-edge">Service</text></g><g stroke-linecap="round" transform="translate(341.2857142857147 28.17857142857156) rotate(0 75.28571428571439 53.99999999999994)"><path d="M27 0 C53.87 2.06, 86.14 0.39, 123.57 0 M27 0 C62.75 1.39, 98.44 0.79, 123.57 0 M123.57 0 C142.08 0.81, 148.65 10.56, 150.57 27 M123.57 0 C142.56 -1.61, 150.42 8.5, 150.57 27 M150.57 27 C151.89 47.66, 148.22 65.64, 150.57 81 M150.57 27 C149.64 39.07, 150.04 50.35, 150.57 81 M150.57 81 C151.57 100.93, 140.22 107.97, 123.57 108 M150.57 81 C149.19 96.91, 141.9 108.91, 123.57 108 M123.57 108 C98.8 106.11, 77.4 105.25, 27 108 M123.57 108 C101.67 107.84, 79.97 109, 27 108 M27 108 C9.91 108.32, 1.49 98.06, 0 81 M27 108 C7.54 106.23, -0.18 98.75, 0 81 M0 81 C-1.47 62.88, 1.05 45.47, 0 27 M0 81 C-0.17 60.37, 0.69 38.48, 0 27 M0 27 C-0.35 8.28, 9.41 -1.09, 27 0 M0 27 C1.16 7.98, 8.57 0.71, 27 0" stroke="#1e1e1e" stroke-width="2" fill="none"></path></g><g transform="translate(373.4380934579036 57.1785714285715) rotate(0 43.13333511352539 25)"><text x="43.13333511352539" y="0" font-family="Virgil, Segoe UI Emoji" font-size="20px" fill="#1e1e1e" text-anchor="middle" style="white-space: pre;" direction="ltr" dominant-baseline="text-before-edge">Account </text><text x="43.13333511352539" y="25" font-family="Virgil, Segoe UI Emoji" font-size="20px" fill="#1e1e1e" text-anchor="middle" style="white-space: pre;" direction="ltr" dominant-baseline="text-before-edge">Service</text></g><g stroke-linecap="round" transform="translate(342.7142857142858 202.4642857142856) rotate(0 75.28571428571439 53.99999999999994)"><path d="M27 0 C64.28 -0.08, 102.46 0.47, 123.57 0 M27 0 C62.5 0.69, 97.84 -0.18, 123.57 0 M123.57 0 C143.2 1.94, 149.28 9.66, 150.57 27 M123.57 0 C141.59 1.81, 151.95 6.99, 150.57 27 M150.57 27 C152.47 44.94, 148.86 66.58, 150.57 81 M150.57 27 C150.94 42.24, 150.76 55.56, 150.57 81 M150.57 81 C151.89 100.58, 143.22 107.48, 123.57 108 M150.57 81 C150.06 100.82, 142.85 109.66, 123.57 108 M123.57 108 C90.6 107.84, 52.34 106.34, 27 108 M123.57 108 C103.12 107.56, 83.14 107.66, 27 108 M27 108 C7.87 109.99, -1.83 98.67, 0 81 M27 108 C6.82 109.53, -0.27 100.04, 0 81 M0 81 C0.93 64.28, -0.94 42.91, 0 27 M0 81 C-0.18 65.6, 0.52 48.56, 0 27 M0 27 C-0.84 10.68, 10.13 0.93, 27 0 M0 27 C0.82 9.55, 9.68 1.25, 27 0" stroke="#1e1e1e" stroke-width="2" fill="none"></path></g><g transform="translate(367.3499984741212 231.46428571428555) rotate(0 50.650001525878906 25)"><text x="50.650001525878906" y="0" font-family="Virgil, Segoe UI Emoji" font-size="20px" fill="#1e1e1e" text-anchor="middle" style="white-space: pre;" direction="ltr" dominant-baseline="text-before-edge">Inventory </text><text x="50.650001525878906" y="25" font-family="Virgil, Segoe UI Emoji" font-size="20px" fill="#1e1e1e" text-anchor="middle" style="white-space: pre;" direction="ltr" dominant-baseline="text-before-edge">Service</text></g><g stroke-linecap="round" transform="translate(344.1428571428571 378.17857142857173) rotate(0 75.28571428571439 53.99999999999994)"><path d="M27 0 C52.97 0.61, 79.7 1.64, 123.57 0 M27 0 C51.67 -0.99, 75.33 0.14, 123.57 0 M123.57 0 C142.43 -0.95, 149.94 9.84, 150.57 27 M123.57 0 C143.75 -0.66, 148.76 11.05, 150.57 27 M150.57 27 C149.91 37.44, 151.34 49.92, 150.57 81 M150.57 27 C151.35 42.11, 150.31 58.34, 150.57 81 M150.57 81 C148.62 99.54, 143.13 108.22, 123.57 108 M150.57 81 C150.41 97.3, 140.31 109.01, 123.57 108 M123.57 108 C83.52 107.61, 45.54 108.52, 27 108 M123.57 108 C99.83 108.09, 75.84 108.96, 27 108 M27 108 C8.62 106.09, -1.68 98.54, 0 81 M27 108 C9.95 106.49, 1.84 98.82, 0 81 M0 81 C-1.21 65.54, 0.13 46.79, 0 27 M0 81 C-0.74 62.79, -0.58 45.87, 0 27 M0 27 C1.29 7.64, 7.85 1.43, 27 0 M0 27 C-0.38 10.17, 10.46 -1.09, 27 0" stroke="#1e1e1e" stroke-width="2" fill="none"></path></g><g transform="translate(379.4952370779855 407.17857142857173) rotate(0 39.93333435058594 25)"><text x="39.93333435058594" y="0" font-family="Virgil, Segoe UI Emoji" font-size="20px" fill="#1e1e1e" text-anchor="middle" style="white-space: pre;" direction="ltr" dominant-baseline="text-before-edge">Shipping </text><text x="39.93333435058594" y="25" font-family="Virgil, Segoe UI Emoji" font-size="20px" fill="#1e1e1e" text-anchor="middle" style="white-space: pre;" direction="ltr" dominant-baseline="text-before-edge">Service</text></g><g stroke-linecap="round" transform="translate(11.285714285714562 79.60714285714283) rotate(0 75.28571428571433 53.99999999999994)"><path d="M27 0 C51.55 1.5, 75.86 -0.62, 123.57 0 M27 0 C54.64 -0.46, 80.85 0.75, 123.57 0 M123.57 0 C139.65 -1.05, 148.57 7.48, 150.57 27 M123.57 0 C140.89 -0.7, 149.37 9.54, 150.57 27 M150.57 27 C152.39 43.05, 150.84 57.3, 150.57 81 M150.57 27 C151.65 46.87, 149.79 68.01, 150.57 81 M150.57 81 C150.96 98.1, 140.24 107.18, 123.57 108 M150.57 81 C149.93 98.69, 141.93 109.18, 123.57 108 M123.57 108 C97.32 108.54, 72.73 109.26, 27 108 M123.57 108 C87.56 108.28, 50.38 108.85, 27 108 M27 108 C10.15 109.92, -0.61 100.51, 0 81 M27 108 C7.12 106.77, 1.35 99.37, 0 81 M0 81 C1.64 67.35, -1.8 54.63, 0 27 M0 81 C-0.5 60.25, -0.63 39.3, 0 27 M0 27 C-1.45 8.36, 9.84 0.12, 27 0 M0 27 C-0.54 10.25, 11.05 0.88, 27 0" stroke="#1e1e1e" stroke-width="2" fill="none"></path></g><g transform="translate(52.821428571428896 108.60714285714278) rotate(0 33.75 25)"><text x="33.75" y="0" font-family="Virgil, Segoe UI Emoji" font-size="20px" fill="#1e1e1e" text-anchor="middle" style="white-space: pre;" direction="ltr" dominant-baseline="text-before-edge">Stock</text><text x="33.75" y="25" font-family="Virgil, Segoe UI Emoji" font-size="20px" fill="#1e1e1e" text-anchor="middle" style="white-space: pre;" direction="ltr" dominant-baseline="text-before-edge">Service</text></g><g stroke-linecap="round"><g transform="translate(168.00000000000034 135.50200551664483) rotate(0 83.5714285714285 -25.417921461544267)"><path d="M-0.2 0.29 C27.83 -8.42, 139.78 -43.16, 167.84 -51.81 M-1.77 -0.6 C26.2 -9.23, 138.98 -42.44, 167.26 -50.78" stroke="#1e1e1e" stroke-width="2" fill="none"></path></g><g transform="translate(168.00000000000034 135.50200551664483) rotate(0 83.5714285714285 -25.417921461544267)"><path d="M147.14 -35.93 C152.98 -38.73, 156.29 -42.26, 167.26 -50.78 M147.14 -35.93 C152.22 -39.77, 157.35 -44.12, 167.26 -50.78" stroke="#1e1e1e" stroke-width="2" fill="none"></path></g><g transform="translate(168.00000000000034 135.50200551664483) rotate(0 83.5714285714285 -25.417921461544267)"><path d="M142.3 -52.33 C149.51 -50.71, 154.12 -49.83, 167.26 -50.78 M142.3 -52.33 C148.4 -52.29, 154.68 -52.71, 167.26 -50.78" stroke="#1e1e1e" stroke-width="2" fill="none"></path></g></g><mask></mask><g stroke-linecap="round"><g transform="translate(165.68030664329694 138.31212983519453) rotate(0 87.85714285714283 62.790765581996794)"><path d="M-0.65 -0.58 C28.78 20.63, 146.84 105.6, 176.35 126.53 M1.21 1.72 C30.55 22.68, 146.61 104.19, 175.74 124.9" stroke="#1e1e1e" stroke-width="2" fill="none"></path></g><g transform="translate(165.68030664329694 138.31212983519453) rotate(0 87.85714285714283 62.790765581996794)"><path d="M151.62 118.33 C157.43 121.39, 166.81 123.34, 175.74 124.9 M151.62 118.33 C157.04 120.08, 164.15 121.33, 175.74 124.9" stroke="#1e1e1e" stroke-width="2" fill="none"></path></g><g transform="translate(165.68030664329694 138.31212983519453) rotate(0 87.85714285714283 62.790765581996794)"><path d="M161.48 104.36 C164.42 111.32, 171 117.23, 175.74 124.9 M161.48 104.36 C164.42 109.54, 169.06 114.3, 175.74 124.9" stroke="#1e1e1e" stroke-width="2" fill="none"></path></g></g><mask></mask><g stroke-linecap="round"><g transform="translate(161.3945923575826 335.3745588044502) rotate(0 85.71428571428578 -121.42857142857139)"><path d="M0.52 -0.15 C28.99 -40.86, 142.45 -203.19, 170.98 -243.48 M-0.66 -1.27 C27.6 -41.91, 141.17 -201.87, 169.8 -242.27" stroke="#1e1e1e" stroke-width="2" fill="none"></path></g><g transform="translate(161.3945923575826 335.3745588044502) rotate(0 85.71428571428578 -121.42857142857139)"><path d="M163.19 -218.17 C164.85 -226.5, 166.13 -232.82, 169.8 -242.27 M163.19 -218.17 C166.01 -226.77, 168.77 -236.63, 169.8 -242.27" stroke="#1e1e1e" stroke-width="2" fill="none"></path></g><g transform="translate(161.3945923575826 335.3745588044502) rotate(0 85.71428571428578 -121.42857142857139)"><path d="M149.24 -228.06 C155.35 -233.35, 161 -236.57, 169.8 -242.27 M149.24 -228.06 C157.47 -232.93, 165.54 -239.02, 169.8 -242.27" stroke="#1e1e1e" stroke-width="2" fill="none"></path></g></g><mask></mask><g stroke-linecap="round"><g transform="translate(164.25173521472584 335.3745588044503) rotate(0 86.42857142857127 -38.571428571428584)"><path d="M0.26 0.19 C28.95 -12.51, 144.3 -64.46, 173.05 -77.28 M-1.06 -0.75 C27.41 -13.17, 143.36 -62.8, 172.21 -75.82" stroke="#1e1e1e" stroke-width="2" fill="none"></path></g><g transform="translate(164.25173521472584 335.3745588044503) rotate(0 86.42857142857127 -38.571428571428584)"><path d="M154.12 -58.56 C161.4 -64.77, 167.65 -71.71, 172.21 -75.82 M154.12 -58.56 C159.63 -64.84, 166.68 -69.7, 172.21 -75.82" stroke="#1e1e1e" stroke-width="2" fill="none"></path></g><g transform="translate(164.25173521472584 335.3745588044503) rotate(0 86.42857142857127 -38.571428571428584)"><path d="M147.26 -74.22 C156.98 -74.55, 165.82 -75.6, 172.21 -75.82 M147.26 -74.22 C154.99 -75.35, 164.33 -74.99, 172.21 -75.82" stroke="#1e1e1e" stroke-width="2" fill="none"></path></g></g><mask></mask><g stroke-linecap="round"><g transform="translate(161.39459235758284 341.08884451873604) rotate(0 89.28571428571416 45)"><path d="M0.39 0.87 C30.03 16.15, 148.06 75.82, 177.78 90.66 M-0.86 0.29 C29.17 15.3, 150.26 73.73, 180.07 88.89" stroke="#1e1e1e" stroke-width="2" fill="none"></path></g><g transform="translate(161.39459235758284 341.08884451873604) rotate(0 89.28571428571416 45)"><path d="M155.22 86.15 C164 85.56, 170.99 87.92, 180.07 88.89 M155.22 86.15 C163.41 88.08, 168.91 88.29, 180.07 88.89" stroke="#1e1e1e" stroke-width="2" fill="none"></path></g><g transform="translate(161.39459235758284 341.08884451873604) rotate(0 89.28571428571416 45)"><path d="M162.79 70.82 C169.21 74.78, 173.96 81.68, 180.07 88.89 M162.79 70.82 C168.61 77.25, 171.87 81.99, 180.07 88.89" stroke="#1e1e1e" stroke-width="2" fill="none"></path></g></g><mask></mask><g stroke-linecap="round" transform="translate(582.2857142857143 416.60714285714283) rotate(0 85 19.285714285714334)"><path d="M9.64 0 C58.45 -3.88, 104.18 -5.18, 160.36 0 C163.59 1.21, 169.44 1.81, 170 9.64 C169.15 17.06, 167.34 20.25, 170 28.93 C169.73 32.12, 167.05 40.79, 160.36 38.57 C115.23 40.14, 70.2 39.54, 9.64 38.57 C4.85 38.92, -0.46 38.7, 0 28.93 C2.39 23.78, 3.06 14.1, 0 9.64 C2.63 3.16, 5.38 -0.1, 9.64 0" stroke="none" stroke-width="0" fill="#ffffff"></path><path d="M9.64 0 C41.66 -0.71, 76.58 0.26, 160.36 0 M9.64 0 C41.11 -1, 71.42 0.35, 160.36 0 M160.36 0 C168.62 -0.37, 170.82 2.98, 170 9.64 M160.36 0 C165.1 -0.17, 171.79 1.65, 170 9.64 M170 9.64 C169.34 17.86, 170.21 23.74, 170 28.93 M170 9.64 C169.81 14.45, 170.26 21.44, 170 28.93 M170 28.93 C168.81 36.12, 165.93 38.13, 160.36 38.57 M170 28.93 C170.21 36.57, 164.73 39.41, 160.36 38.57 M160.36 38.57 C115.75 36.36, 69.88 37.61, 9.64 38.57 M160.36 38.57 C127.98 38.04, 95.57 39.01, 9.64 38.57 M9.64 38.57 C3.75 39.35, -0.19 35.46, 0 28.93 M9.64 38.57 C2.36 37.27, 1.62 37.3, 0 28.93 M0 28.93 C0.85 23.22, -0.72 20.9, 0 9.64 M0 28.93 C-0.79 23.82, -0.69 18.79, 0 9.64 M0 9.64 C-1.13 4.85, 3.13 -0.74, 9.64 0 M0 9.64 C-1.99 5.35, 4.69 1.89, 9.64 0" stroke="#1e1e1e" stroke-width="2" fill="none"></path></g><g stroke-linecap="round"><g transform="translate(503.7142857142861 434.49579328872466) rotate(0 32.857142857143 -0.1899940313650177)"><path d="M1.25 0.69 C12.06 0.77, 52.93 -0.62, 63.95 -1.08 M-1.51 -1.41 C10.29 -0.76, 58.07 1.91, 69.39 2.17" stroke="#1e1e1e" stroke-width="2" fill="none"></path></g><g transform="translate(503.7142857142861 434.49579328872466) rotate(0 32.857142857143 -0.1899940313650177)"><path d="M46.05 8.46 C51.47 8.74, 57.14 4.63, 68.26 3.25 M46.1 8.99 C52.62 7.24, 58.65 5.78, 70.33 1.74" stroke="#1e1e1e" stroke-width="2" fill="none"></path></g><g transform="translate(503.7142857142861 434.49579328872466) rotate(0 32.857142857143 -0.1899940313650177)"><path d="M46.77 -8.63 C51.9 -3.77, 57.38 -3.32, 68.26 3.25 M46.83 -8.1 C53.02 -4.99, 58.85 -1.61, 70.33 1.74" stroke="#1e1e1e" stroke-width="2" fill="none"></path></g></g><mask></mask><g stroke-linecap="round" transform="translate(623.8571428571432 10) rotate(0 25 21.5)"><path d="M10.75 0 C24.06 4.53, 23.87 -4.9, 39.25 0 C43.8 4.47, 46.89 2.24, 50 10.75 C50.74 14.86, 50.77 33.05, 50 32.25 C44.41 44.11, 46.51 44.56, 39.25 43 C26.08 47.04, 19.36 45.66, 10.75 43 C1.51 44.78, -0.31 43.63, 0 32.25 C-3.06 26.3, 4.22 18.02, 0 10.75 C4.75 4.5, 7.78 -1.39, 10.75 0" stroke="none" stroke-width="0" fill="#ffffff"></path><path d="M10.75 0 C14.7 -3.91, 23.16 1.89, 39.25 0 M10.75 0 C19.93 1.83, 27.11 1.73, 39.25 0 M39.25 0 C45.85 -3.52, 48.71 5.67, 50 10.75 M39.25 0 C50.88 4.51, 47.02 3.81, 50 10.75 M50 10.75 C49.86 14.78, 51.84 20.05, 50 32.25 M50 10.75 C50.97 15.94, 50.52 22.85, 50 32.25 M50 32.25 C49.78 38.35, 46.04 40.54, 39.25 43 M50 32.25 C49.14 41.49, 45.9 45.2, 39.25 43 M39.25 43 C30.8 41.36, 18.16 39.31, 10.75 43 M39.25 43 C33.86 42.19, 24.48 45.12, 10.75 43 M10.75 43 C0.42 44.61, -1.55 35.78, 0 32.25 M10.75 43 C0.57 46.86, 0.37 38.74, 0 32.25 M0 32.25 C4.09 29.04, 3.03 23.27, 0 10.75 M0 32.25 C1.05 26.34, -2 21.08, 0 10.75 M0 10.75 C1.18 0.02, 7.08 3.71, 10.75 0 M0 10.75 C-2.96 8.01, 6.84 -1.25, 10.75 0" stroke="#1e1e1e" stroke-width="2" fill="none"></path></g><g stroke-linecap="round" transform="translate(625.8571428571432 267.5) rotate(0 25 21.5)"><path d="M10.75 0 C25.59 1.47, 32.21 -0.54, 39.25 0 C49.93 -2.23, 53.42 0.46, 50 10.75 C49.98 22.69, 51.39 26.49, 50 32.25 C52.81 39.05, 41.13 44.48, 39.25 43 C27.14 46.04, 15.6 46.3, 10.75 43 C4.5 39.92, -3.46 42.14, 0 32.25 C-2.3 27.9, 3.21 14.51, 0 10.75 C2.21 7.1, 6.79 0.07, 10.75 0" stroke="none" stroke-width="0" fill="#ffffff"></path><path d="M10.75 0 C20.32 3.02, 34.55 -0.75, 39.25 0 M10.75 0 C22.13 2.18, 29.77 0.54, 39.25 0 M39.25 0 C46.17 -0.44, 49.11 4.27, 50 10.75 M39.25 0 C50.78 2.41, 50.2 2.36, 50 10.75 M50 10.75 C52.59 17.33, 51.55 26.17, 50 32.25 M50 10.75 C50.82 15.62, 49.5 19.39, 50 32.25 M50 32.25 C46.92 37.79, 46.94 39.46, 39.25 43 M50 32.25 C53.18 42.82, 48.28 42.92, 39.25 43 M39.25 43 C27.53 46.14, 19.7 42.91, 10.75 43 M39.25 43 C30.22 43.95, 25.63 43.89, 10.75 43 M10.75 43 C1.49 46.67, 3.03 39.42, 0 32.25 M10.75 43 C4.89 40.72, 0.53 41.81, 0 32.25 M0 32.25 C2.09 28.96, 2.1 21.44, 0 10.75 M0 32.25 C-0.99 26.55, 0.37 19.1, 0 10.75 M0 10.75 C3.19 4.98, 6.54 -0.51, 10.75 0 M0 10.75 C4.57 6.77, 7.42 -3.06, 10.75 0" stroke="#1e1e1e" stroke-width="2" fill="none"></path></g><g stroke-linecap="round" transform="translate(569.8571428571432 135.71428571428572) rotate(0 85 19.285714285714363)"><path d="M9.64 0 C61.02 1.71, 107.5 -4.03, 160.36 0 C167.21 3.4, 167.7 3.61, 170 9.64 C170.97 17.43, 170.75 22.89, 170 28.93 C168.39 38.72, 167.01 42.1, 160.36 38.57 C112.26 37.8, 62.11 40.87, 9.64 38.57 C3.04 40.45, 2.02 35.73, 0 28.93 C-1.38 27.79, -3.09 22.16, 0 9.64 C-0.23 1.17, 6.03 0.63, 9.64 0" stroke="none" stroke-width="0" fill="#ffffff"></path><path d="M9.64 0 C62.69 1, 117.68 1, 160.36 0 M9.64 0 C68.47 0.74, 127.58 1.42, 160.36 0 M160.36 0 C167.64 1.59, 170.7 4.69, 170 9.64 M160.36 0 C166.49 2.28, 171.6 5.13, 170 9.64 M170 9.64 C168.8 15.78, 170.42 19.08, 170 28.93 M170 9.64 C170.71 14.52, 170.23 21.1, 170 28.93 M170 28.93 C170.11 35.21, 168.66 38.93, 160.36 38.57 M170 28.93 C170.97 36.51, 166.63 36.4, 160.36 38.57 M160.36 38.57 C109.63 38.5, 63.28 38.41, 9.64 38.57 M160.36 38.57 C103.99 38.23, 48.72 38.54, 9.64 38.57 M9.64 38.57 C4.22 37.92, 0.64 36.67, 0 28.93 M9.64 38.57 C0.98 39.48, 1.44 36.68, 0 28.93 M0 28.93 C1.02 24.5, 0.18 16.54, 0 9.64 M0 28.93 C0.02 22.47, -0.57 15.63, 0 9.64 M0 9.64 C-1.05 2.03, 2.74 1.45, 9.64 0 M0 9.64 C1.82 4.63, 5.48 -0.12, 9.64 0" stroke="#1e1e1e" stroke-width="2" fill="none"></path></g><g stroke-linecap="round"><g transform="translate(490.8571428571431 78) rotate(0 36.50000000000006 38.5)"><path d="M0 0 C12.17 12.83, 60.83 64.17, 73 77 M0 0 C12.17 12.83, 60.83 64.17, 73 77" stroke="#1e1e1e" stroke-width="2" fill="none"></path></g><g transform="translate(490.8571428571431 78) rotate(0 36.50000000000006 38.5)"><path d="M50.63 65.83 C58.58 69.8, 66.54 73.77, 73 77 M50.63 65.83 C56.75 68.89, 62.87 71.94, 73 77" stroke="#1e1e1e" stroke-width="2" fill="none"></path></g><g transform="translate(490.8571428571431 78) rotate(0 36.50000000000006 38.5)"><path d="M63.04 54.07 C66.58 62.22, 70.12 70.37, 73 77 M63.04 54.07 C65.77 60.34, 68.49 66.61, 73 77" stroke="#1e1e1e" stroke-width="2" fill="none"></path></g></g><mask></mask><g stroke-linecap="round"><g transform="translate(490.8571428571431 254) rotate(0 65.50000000000006 20.940172719450715)"><path d="M0 0 C21.83 6.98, 109.17 34.9, 131 41.88 M0 0 C21.83 6.98, 109.17 34.9, 131 41.88" stroke="#1e1e1e" stroke-width="2" fill="none"></path></g><g transform="translate(490.8571428571431 254) rotate(0 65.50000000000006 20.940172719450715)"><path d="M106.02 42.87 C115.1 42.51, 124.17 42.15, 131 41.88 M106.02 42.87 C113.62 42.57, 121.22 42.27, 131 41.88" stroke="#1e1e1e" stroke-width="2" fill="none"></path></g><g transform="translate(490.8571428571431 254) rotate(0 65.50000000000006 20.940172719450715)"><path d="M111.23 26.58 C118.41 32.14, 125.59 37.7, 131 41.88 M111.23 26.58 C117.24 31.24, 123.26 35.89, 131 41.88" stroke="#1e1e1e" stroke-width="2" fill="none"></path></g></g><mask></mask><g stroke-linecap="round"><g transform="translate(490.8571428571431 83) rotate(0 64.00000000000006 -25.932728531318034)"><path d="M0 0 C21.33 -8.64, 106.67 -43.22, 128 -51.87 M0 0 C21.33 -8.64, 106.67 -43.22, 128 -51.87" stroke="#1e1e1e" stroke-width="2" fill="none"></path></g><g transform="translate(490.8571428571431 83) rotate(0 64.00000000000006 -25.932728531318034)"><path d="M109.44 -35.12 C115.3 -40.41, 121.16 -45.69, 128 -51.87 M109.44 -35.12 C113.25 -38.56, 117.07 -42, 128 -51.87" stroke="#1e1e1e" stroke-width="2" fill="none"></path></g><g transform="translate(490.8571428571431 83) rotate(0 64.00000000000006 -25.932728531318034)"><path d="M103.02 -50.97 C110.9 -51.25, 118.79 -51.53, 128 -51.87 M103.02 -50.97 C108.15 -51.15, 113.28 -51.34, 128 -51.87" stroke="#1e1e1e" stroke-width="2" fill="none"></path></g></g><mask></mask></svg>